<svg id="Camada_1" data-name="Camada 1" xmlns="http://www.w3.org/2000/svg" viewBox="0 0 229.55 125.52"><defs><style>.cls-1{fill:#010101;}.cls-2{fill:#f78d1e;}</style></defs><title>favicon-munu</title><path class="cls-1" d="M216.68,74.68Q198.37,56.3,172.3,56.33T127.92,74.68C115.71,86.89,111.09,102.2,107,119.07h0c-2.93,10.64-6.42,18.35-13.45,25.34a34.7,34.7,0,0,1-25.39,10.52,35.85,35.85,0,0,1-35.82-35.86A34.56,34.56,0,0,1,42.85,93.72,34.59,34.59,0,0,1,68.19,83.2,34.46,34.46,0,0,1,93.54,93.72a54.84,54.84,0,0,1,5.3,6.15,92.07,92.07,0,0,1,11.85-26.15c-12-11.57-25.63-17.35-42.5-17.35q-26,0-44.38,18.35A60.53,60.53,0,0,0,5.45,119.11q0,26,18.36,44.38a60.52,60.52,0,0,0,44.38,18.35q26,0,44.39-18.35c12.21-12.21,16.82-27.51,20.84-44.38h0c2.93-10.65,6.43-18.36,13.46-25.35a35.83,35.83,0,0,1,61.17,25.35,35.78,35.78,0,0,1-35.79,35.82A34.37,34.37,0,0,1,152.38,149a42,42,0,0,1-5.46-4.54,55.17,55.17,0,0,1-5.3-6.15,92.34,92.34,0,0,1-11.85,26.15,66.64,66.64,0,0,0,12.49,9.6,58,58,0,0,0,30,7.79q26,0,44.38-18.35A60.52,60.52,0,0,0,235,119.11Q235,93,216.68,74.68Z" transform="translate(-5.45 -56.33)"/><path class="cls-2" d="M152.38,149a42,42,0,0,1-5.46-4.54,51.18,51.18,0,0,1-5.3-6.15,92.34,92.34,0,0,1-11.85,26.15,66.64,66.64,0,0,0,12.49,9.6c1,.56,2,1.13,3,1.61,8.43-9.44,11-24.5,11-24.5A26.51,26.51,0,0,1,152.38,149Z" transform="translate(-5.45 -56.33)"/></svg>